
<svg width="201px" height="71px" viewBox="0 0 201 71" version="1.1" xmlns="http://www.w3.org/2000/svg" xmlns:xlink="http://www.w3.org/1999/xlink">
    <!-- Generator: Sketch 51.2 (57519) - http://www.bohemiancoding.com/sketch -->
    <desc>Created with Sketch.</desc>
    <defs></defs>
    <g id="Symbols" stroke="none" stroke-width="1" fill="none" fill-rule="evenodd">
        <g id="Orbital-header">
            <text id="rbital" font-family="Chalkboard" font-size="56" font-weight="normal" fill="#F7F7F7">
                <tspan x="67" y="55">rbital</tspan>
            </text>
            <g id="orbit" transform="translate(0.000000, 1.000000)" fill-rule="nonzero">
                <path d="M37.6337374,39.9328017 C41.7943973,48.5198577 54.3618439,27.2833136 59,31.870103 C58.5786971,26.1689639 56.1498803,20.5842041 51.7145792,16.2252579 C46.4023973,11.0045268 39.3001196,8.61246271 32.3486225,9.05094515 L32.3475928,9.05195714 C32.3475928,9.05195714 21.302956,20.6118171 26.2959244,25.5186856 C31.2888928,30.4255542 42.522704,11.615771 46.2673568,17.7494651 C50.0120096,23.8831592 33.4730775,31.3457456 37.6337374,39.9328017 Z" id="Shape" fill="#20CE55"></path>
                <path d="M34.2682136,50.9413772 C27.4207531,39.2868852 18.4983223,49.7146266 15.2819864,46.1364474 C12.0656504,42.5582683 22.6482628,39.0824508 19.2244592,34.2775211 C15.8006556,29.4725913 9.00205414,33.7632545 9.00205414,33.7632545 L9,33.7632545 C9.10886918,39.9309834 11.5522633,46.0679171 16.3288618,50.7748225 C21.7155386,56.0827417 28.9458019,58.465833 35.9894323,57.9249639 C36.0796676,55.5767161 35.5992933,53.207938 34.2682136,50.9413772 Z" id="Shape" fill="#20CE55"></path>
                <path d="M10.944193,23.9955023 C9.59015869,27.1661633 8.94376189,30.5598042 9.0038305,33.9433686 L9.00588162,33.9433686 C9.00588162,33.9433686 15.7946596,29.6713397 19.2132958,34.4554017 C22.631932,39.2394637 12.0651318,42.7003296 15.2766045,46.2628248 C18.4880773,49.8253201 27.3974236,39.4430102 34.234989,51.0468868 C35.5641168,53.3036041 36.0437866,55.6619506 35.9536837,58 C38.9839251,57.7689589 41.980909,56.9963748 44.7790805,55.6822476 L44.7780549,55.68124 C46.6189379,45.2489791 56.758079,43.6905674 56.758079,43.6905674 L56.7591046,43.6915751 C58.5098847,39.9131536 59.2351032,35.786659 58.9335881,31.7201919 C54.3141658,27.1529199 41.79748,48.2985775 37.6536252,39.7483299 C33.5097705,31.1980822 49.9817543,23.7674842 46.2522264,17.6602261 C42.5226985,11.552968 31.3342614,30.2819791 26.3614599,25.3961439 C21.3886584,20.5103086 32.3888317,9 32.3888317,9 C29.6776865,9.17000593 26.988371,9.77258412 24.4398506,10.8087422 L24.4408761,10.8097499 C24.4408761,10.8097499 22.7781478,20.254652 10.9472697,23.9965099 L10.944193,23.9955023 Z" id="Shape" fill="#1AA5E2"></path>
                <g id="Group" transform="translate(8.000000, 8.000000)" fill="#333333">
                    <path d="M39.267094,30.2219316 C39.0646923,30.2219316 38.8633077,30.1378034 38.7197521,29.9734701 C38.4557436,29.6712479 38.4866923,29.2123932 38.7887692,28.9483846 C39.2338205,28.5594188 39.6801795,28.163188 40.1250855,27.7681197 C42.1053675,26.0098547 43.9758034,24.3492308 45.7068974,23.325453 C47.8712735,22.0455128 49.5725812,22.0042479 50.7635983,23.2026752 C51.0463504,23.4873162 51.0448974,23.9473333 50.7604017,24.2300855 C50.4757607,24.5126923 50.0158889,24.5115299 49.7329915,24.2268889 C48.1252564,22.6088376 44.5485726,25.7837692 41.0898718,28.8546667 C40.6420598,29.2522051 40.1929402,29.6510513 39.7449829,30.0424872 C39.607094,30.1627949 39.4368034,30.2219316 39.267094,30.2219316 Z" id="Shape"></path>
                    <path d="M36.6219231,32.4067949 C36.4020855,32.4067949 36.1848632,32.3074103 36.0420342,32.1185214 C35.7999658,31.7985726 35.8631709,31.3429145 36.1831197,31.1008462 C36.4840342,30.8731624 36.8068889,30.6188889 37.1426752,30.3451453 C37.4536154,30.0917436 37.9111624,30.1382393 38.1648547,30.4491795 C38.4184017,30.7601197 38.3717607,31.217812 38.0608205,31.471359 C37.7065812,31.7602137 37.3790769,32.0181197 37.0597094,32.2596068 C36.9285043,32.3588462 36.7746325,32.4067949 36.6219231,32.4067949 Z" id="Shape"></path>
                    <path d="M31.9085641,34.6237692 C31.5143675,34.6237692 31.1416752,34.5621624 30.7872906,34.439094 C29.833547,34.1079573 29.0601197,33.331188 28.4883675,32.1305812 C26.106188,27.1280769 29.9125897,22.5945983 33.2708889,18.5946581 C33.8624017,17.8901026 34.4212222,17.2246325 34.9453162,16.5607607 C35.1939231,16.2458974 35.6507436,16.1919915 35.9656068,16.4407436 C36.2804701,16.6893504 36.3343761,17.1461709 36.0856239,17.4610342 C35.5478718,18.1421966 34.9823675,18.8158034 34.3835897,19.5289316 C31.156641,23.3725299 27.8197009,27.3468974 29.8001282,31.5057949 C30.2042051,32.3541966 30.6829658,32.8647778 31.2638718,33.066453 C31.9161197,33.2931197 32.7475214,33.1494188 33.8058803,32.6276496 C34.1659316,32.4502393 34.6013932,32.5981538 34.7788034,32.9580598 C34.9562137,33.3179658 34.8082991,33.7535726 34.4483932,33.9309829 C33.5096154,34.3936154 32.6693504,34.6237692 31.9085641,34.6237692 Z" id="Shape"></path>
                    <path d="M19.9054017,18.8836581 C18.950641,18.8836581 18.1237436,18.5375556 17.4315385,17.8453504 C12.0638974,12.4777094 22.9280598,0.779965812 23.3931624,0.284641026 L23.409,0.268222222 C23.6927692,-0.0155470085 24.1533675,-0.015982906 24.4369915,0.267786325 C24.7168376,0.547777778 24.7211966,0.998786325 24.4487607,1.28328205 C24.332812,1.40765812 21.7069658,4.24099145 19.6974786,7.5982735 C17.9110256,10.5828632 16.2460427,14.6050342 18.4589487,16.8179402 C20.4351624,18.7944444 24.1507521,15.5744701 27.7438547,12.4604188 C30.8595043,9.76003419 33.8010855,7.20916239 36.1543504,7.58432479 C37.035735,7.72482906 37.7558376,8.25139316 38.2946068,9.14934188 C39.0471111,10.4035641 39.1463504,11.8254615 38.5897094,13.3756581 C38.4541453,13.7532906 38.0382991,13.9494444 37.6603761,13.8138803 C37.2827436,13.6783162 37.0865897,13.2623248 37.2221538,12.884547 C37.6356752,11.732906 37.5806068,10.7835214 37.0485214,9.89676068 C36.6331111,9.20426496 36.208547,9.06419658 35.925359,9.01900855 C34.2413419,8.75020513 31.4223932,11.1947179 28.6952735,13.5581538 C26.7617778,15.2338889 24.7626068,16.9665812 22.911641,17.9758291 C21.8021368,18.581 20.7979744,18.8835128 19.9054017,18.8836581 Z" id="Shape"></path>
                    <path d="M27.4586325,50.9673077 C27.4493333,50.9673077 27.4400342,50.9671624 27.4305897,50.9668718 C27.0297094,50.9517607 26.7168803,50.6143761 26.7321368,50.2133504 C26.8229487,47.8159145 26.2821453,45.5862991 25.1248376,43.586547 C22.7420769,39.4709487 20.0020256,37.8392393 16.2403761,38.2962051 C15.8424017,38.3450256 15.4800256,38.0609658 15.431641,37.6627009 C15.3832564,37.2644359 15.6668803,36.9023504 16.0651453,36.8539658 C20.4255726,36.3240598 23.703812,38.2322735 26.3824017,42.8587436 C27.6793419,45.0998376 28.2855299,47.5928803 28.1841111,50.2685641 C28.1692906,50.6598547 27.8471624,50.9673077 27.4586325,50.9673077 Z" id="Shape"></path>
                    <path d="M8.88431624,39.911641 C7.93318803,39.911641 7.08638462,39.6412393 6.40798291,38.8753675 C5.52122222,37.8741111 5.37592308,36.7400513 5.97629915,35.5042821 C6.44430769,34.5408034 7.29561538,33.6328291 8.19690598,32.6713846 C10.3747949,30.3483419 11.6005385,28.8001795 10.2613162,26.8929829 C9.04065812,25.1544786 7.16353846,24.5562821 4.68255556,25.1151026 C2.72290598,25.5563761 1.14045299,26.5605385 1.12461538,26.5705641 C0.786504274,26.7869145 0.337384615,26.6884017 0.121034188,26.3505812 C-0.0953162393,26.0127607 0.00305128205,25.5633504 0.341017094,25.347 C0.414102564,25.3002137 2.15711111,24.1943419 4.36347863,23.6975641 C7.43045299,23.0069573 9.88150427,23.8231026 11.4505897,26.058094 C13.5651282,29.0697094 11.176265,31.6178205 9.25686325,33.6650855 C7.28239316,35.7711966 6.51913675,36.809359 7.49554701,37.9118889 C8.31111111,38.8326496 9.78415385,38.458359 12.1199829,37.7715299 C12.4428376,37.6766496 12.7731026,37.5795897 13.1097607,37.4851453 C13.4958205,37.3764615 13.8969915,37.6019658 14.0055299,37.9883162 C14.1139231,38.3746667 13.8885641,38.7756923 13.502359,38.8840855 C13.1716581,38.9769316 12.8472051,39.0722479 12.5300171,39.1656752 C11.2422308,39.5441795 9.99265812,39.9114957 8.88431624,39.911641 Z" id="Shape"></path>
                    <path d="M36.2105812,48.6269744 C36.1693162,48.6269744 36.1276154,48.6234872 36.0856239,48.6160769 C35.690265,48.5474957 35.4253846,48.1714615 35.4939658,47.7762479 C36.4881026,42.0427436 39.8558462,38.8869915 42.5059573,37.2491795 C42.8474103,37.0383504 43.2949316,37.1439829 43.505906,37.4852906 C43.7168803,37.8265983 43.6111026,38.274265 43.2697949,38.4852393 C39.7840684,40.6392991 37.6494786,43.848812 36.925453,48.0244188 C36.8642821,48.3777863 36.557265,48.6269744 36.2105812,48.6269744 Z" id="Shape"></path>
                    <path d="M44.8493419,37.5609915 C44.5708034,37.5609915 44.304906,37.3998547 44.1847436,37.1287265 C44.0221538,36.7619915 44.1876496,36.3327778 44.5543846,36.1700427 C46.4660855,35.3223675 47.9176239,35.0890171 47.9785043,35.0794274 C48.3751709,35.0173846 48.7465556,35.2885128 48.8085983,35.6848889 C48.8704957,36.0809744 48.5999487,36.4522137 48.2041538,36.5148376 C48.1909316,36.5168718 46.8678376,36.7336581 45.1434274,37.4983675 C45.0476752,37.5407949 44.9477094,37.5609915 44.8493419,37.5609915 Z" id="Shape"></path>
                    <path d="M2.88084615,16.6103077 L2.43564957,15.2272051 C13.6210684,11.6266923 15.3088632,2.57557265 15.3245556,2.48461538 L16.7563333,2.73220513 C16.7384615,2.83565812 16.2960256,5.29862393 14.3561368,8.24659829 C12.5776752,10.9495983 9.14323932,14.5945726 2.88084615,16.6103077 Z" id="Shape"></path>
                </g>
                <path d="M45.312039,16 C45.1874012,16 45.0613892,15.9632028 44.9480196,15.886331 C44.137118,15.3355652 43.2830672,14.84439 42.409778,14.4265111 C42.0626609,14.2604024 41.9054551,13.8206241 42.0586758,13.4443097 C42.2118965,13.0679952 42.6175535,12.8974172 42.9646705,13.0636749 C43.8981487,13.5104552 44.8108768,14.0352991 45.67757,14.6239049 C45.9991273,14.8423043 46.0965565,15.3020455 45.8951022,15.6506503 C45.7645554,15.8762006 45.5408394,16 45.312039,16 Z" id="Shape" fill="#FFFFFF"></path>
                <path d="M56,33.6205331 C56,36.3405463 55.5191088,39.0202835 54.6130941,41.5313557 C54.4602234,41.9549083 53.9717658,42.1285169 53.5976459,41.8964572 C53.3078781,41.7165964 53.1827511,41.3480053 53.3011524,41.019981 C54.1494377,38.6717577 54.5986618,36.1649021 54.5986618,33.6206785 C54.5986618,27.7581174 52.3329245,22.3012245 48.2190069,18.2547196 C47.9373661,17.978458 47.9261565,17.5189914 48.1923842,17.2267357 C48.4586118,16.9359341 48.9013904,16.922848 49.18163,17.1991096 C53.5787297,21.5231847 56,27.3552117 56,33.6205331 Z" id="Shape" fill="#FFFFFF"></path>
                <path d="M35.927393,57.5774144 C33.0260193,56.5445382 30.3717567,54.9813057 28.0808925,53.0049226 C22.762192,48.4192452 19.3913075,41.6066573 19.3913075,34 C19.3913075,27.2548054 22.042663,21.1322668 26.3511156,16.6359587 C28.7248347,14.1585209 31.6014972,12.1733474 34.8153936,10.8489217 C36.1556072,10.2973218 37.5548368,9.86175574 39,9.55130684 C37.3241515,9.19119198 35.5865252,9 33.8041282,9 C30.4841195,9 27.3181917,9.65781763 24.4240861,10.8489217 C21.2101897,12.1733474 18.3335271,14.1585209 15.9598081,16.6359587 C11.6513555,21.1322668 9,27.2548054 9,34 C9,41.6066573 12.3708845,48.4192452 17.689585,53.0049226 C19.9804492,54.9813057 22.6347118,56.5445382 25.5360855,57.5774144 C28.1220292,58.4989451 30.9056617,59 33.8041282,59 C35.5855077,59 37.3229886,58.8095406 38.998401,58.4497187 C37.9486155,58.2240975 36.9232502,57.932255 35.927393,57.5774144 Z" id="Shape" fill="#000000" opacity="0.25"></path>
                <circle id="Oval" fill="#FCBC1D" cx="9" cy="13" r="4"></circle>
                <path d="M8.85474302,15.8288305 C9.19338711,16.2051511 9.58402773,16.4910955 10,16.6851821 C8.69075395,17.3000366 7.12152523,17.0140922 6.05492967,15.8288305 C4.64835678,14.2657666 4.64835678,11.7337513 6.05492967,10.172169 C7.12152523,8.98542574 8.69075395,8.69948136 10,9.31581744 C9.58402773,9.50990405 9.19338711,9.79584843 8.85474302,10.172169 C7.44817012,11.7337513 7.44817012,14.2657666 8.85474302,15.8288305 Z" id="Shape" fill="#000000" opacity="0.25"></path>
                <path d="M5.7388997,11 C5.54976974,11 5.36078755,10.9278924 5.2164282,10.7836773 C4.92785727,10.4950992 4.92785727,10.0272866 5.2164282,9.73885633 L12.7387766,2.21632271 C13.0273475,1.92789243 13.4950009,1.92789243 13.7835718,2.21632271 C14.0721427,2.50490075 14.0721427,2.97271339 13.7835718,3.26114367 L6.26137119,10.7836773 C6.11701185,10.9278924 5.92802965,11 5.7388997,11 Z" id="Shape" fill="#333333"></path>
                <path d="M11.7389118,17 C11.5497788,17 11.3607935,16.9278912 11.2164318,16.7836737 C10.9278561,16.495091 10.9278561,16.0272706 11.2164318,15.7388356 L18.7387559,8.21632626 C19.0273315,7.92789125 19.4949926,7.92789125 19.7835682,8.21632626 C20.0721439,8.50490904 20.0721439,8.97272936 19.7835682,9.26116438 L12.2613919,16.783526 C12.1170302,16.9277435 11.9280449,17 11.7389118,17 Z" id="Shape" fill="#333333"></path>
                <path d="M11.7174935,11 C11.5338427,11 11.3503354,10.9299806 11.2101582,10.7899419 C10.9299473,10.5097209 10.9299473,10.0554559 11.2101582,9.77537843 L15.7753148,5.21005811 C16.0555257,4.92998063 16.5096309,4.92998063 16.7898418,5.21005811 C17.0700527,5.49027907 17.0700527,5.94454408 16.7898418,6.22462157 L12.2248287,10.7899419 C12.0846515,10.9299806 11.9011442,11 11.7174935,11 Z" id="Shape" fill="#333333"></path>
                <path d="M8.49992965,18 C7.34691325,18 6.19417825,17.5614148 5.31650695,16.6838223 C3.56116435,14.928778 3.56116435,12.073332 5.31650695,10.3184283 C6.16688292,9.46826501 7.29738772,9 8.49992965,9 C9.70247159,9 10.8331171,9.46826501 11.6834931,10.3184283 C13.4388356,12.073332 13.4388356,14.928778 11.6834931,16.6838223 C10.8058218,17.5611334 9.65266466,18 8.49992965,18 Z M8.49992965,10.4067643 C7.67319086,10.4067643 6.89597761,10.7287404 6.3113793,11.3131926 C5.10461644,12.5196537 5.10461644,14.4827376 6.3113793,15.6891987 C7.51814217,16.8956598 9.48171714,16.8956598 10.6886207,15.6891987 C11.8953836,14.4827376 11.8953836,12.5196537 10.6886207,11.3131926 C10.1038817,10.7285998 9.32666844,10.4067643 8.49992965,10.4067643 Z" id="Shape" fill="#333333"></path>
                <path d="M32.2842191,67 C32.2784898,67 32.2729038,67 32.2673178,66.9998547 C23.7350164,66.7996506 15.7117599,63.317435 9.67569738,57.194791 C3.74863406,51.1827098 0.319814821,43.1944479 0.0210338808,34.7016077 C-0.177914694,29.0502716 1.03754794,23.412883 3.5356488,18.3989168 C3.71411526,18.040932 4.14509889,17.8972442 4.49787811,18.0782706 C4.85080057,18.2592969 4.99245653,18.696172 4.81399007,19.0543021 C2.42460193,23.8500487 1.26213496,29.2427756 1.45234641,34.6498858 C1.73823651,42.7742807 5.01823821,50.4160354 10.6884874,56.1674735 C16.4627227,62.0246799 24.1379267,65.3559433 32.3004043,65.5475755 C32.6958665,65.5568739 33.0089706,65.8895789 32.9998037,66.2905683 C32.9907802,66.6857463 32.67209,67 32.2842191,67 Z" id="Shape" fill="#808080"></path>
                <path d="M36.7278576,66 C36.3572957,66 36.0402124,65.7212274 36.0034914,65.3483764 C35.9644388,64.9517171 36.2574786,64.5990669 36.6580585,64.5603966 C43.5553483,63.8950652 49.9223688,61.1012794 55.0707462,56.4811871 C55.4637488,56.1288255 55.8541284,55.7608804 56.2313934,55.3871636 C58.886383,52.7581595 61.0331067,49.7394221 62.6119657,46.414641 C62.7831849,46.0539104 63.21728,45.8992292 63.5812847,46.0687725 C63.945435,46.2383159 64.1017908,46.6681624 63.9305717,47.0286043 C62.2798735,50.504748 60.0361013,53.6601301 57.2617683,56.4074538 C56.8676,56.7979085 56.4594427,57.1824473 56.048954,57.5505367 C50.6669899,62.3801413 44.0105727,65.3007599 36.7992596,65.9963927 C36.7753618,65.9988457 36.751464,66 36.7278576,66 Z" id="Shape" fill="#808080"></path>
                <path d="M64.654566,45 C64.5837751,45 64.5119374,44.9872718 64.4412774,44.9603689 C64.0996231,44.8301938 63.9181315,44.4185511 64.0358982,44.0410432 C64.2907977,43.2238326 64.5180875,42.3839137 64.7116175,41.544718 C64.8009893,41.1578086 65.1567756,40.9239273 65.5071971,41.0225711 C65.8573568,41.1212149 66.0688135,41.5149224 65.9795725,41.9019764 C65.7772754,42.7795015 65.5395175,43.6577497 65.2729721,44.5124218 C65.1796747,44.8118246 64.9260837,45 64.654566,45 Z" id="Shape" fill="#808080"></path>
                <path d="M65.8005227,40 C65.7599144,40 65.7187218,39.9966926 65.677237,39.9896463 C65.2796259,39.9230663 65.01202,39.5517715 65.0796518,39.1602007 C65.3662473,37.5008779 65.5203544,35.7997091 65.5375911,34.1038608 C65.6268418,25.5062713 62.2753399,17.423634 56.1003905,11.3447234 C53.085295,8.37652168 49.4041061,5.96986384 45.4548729,4.38503018 C45.081364,4.23518927 44.9019862,3.8155772 45.0541944,3.44787738 C45.2064026,3.08003377 45.63279,2.90344582 46.0061529,3.05343053 C50.1341796,4.71002102 53.9818919,7.22539261 57.1332736,10.3279047 C63.5880991,16.6823385 67.0916631,25.1313814 66.9981763,34.1183848 C66.9802093,35.8898725 66.8192367,37.6673998 66.5197868,39.4013554 C66.4591665,39.7520866 66.1500757,40 65.8005227,40 Z" id="Shape" fill="#808080"></path>
                <path d="M18.7207456,5 C18.4566423,5 18.2023314,4.84965838 18.0761839,4.5896401 C17.8983391,4.22306182 18.042487,3.7773798 18.3980327,3.59409066 C21.5736076,1.95725183 24.9912531,0.862117763 28.5560706,0.338964545 C33.5476791,-0.392411075 38.7156925,0.0648470998 43.5015194,1.6614662 C43.8798177,1.78761662 44.0873274,2.20599078 43.9647801,2.59586979 C43.8423767,2.9857488 43.4361416,3.19975928 43.0581313,3.07331203 C38.479238,1.54585305 33.5347188,1.1083337 28.7589721,1.80824592 C25.3480948,2.30884048 22.0787734,3.3561858 19.0421624,4.9213415 C18.9389115,4.97476992 18.8288925,5 18.7207456,5 Z" id="Shape" fill="#808080"></path>
                <path d="M33.5000726,59 C33.074539,59 32.6463922,58.9894016 32.2273919,58.9686403 C18.6419683,58.3005047 8,47.1132262 8,33.4999274 C8,27.0296687 10.4266011,20.8599404 14.8329277,16.1275311 C19.2161701,11.4198031 25.15012,8.55982851 31.5416891,8.07462444 C32.1916767,8.02511679 32.8505205,8 33.4999274,8 C39.0671432,8 44.3572032,9.76224027 48.7982288,13.0962397 C51.8963046,15.4229544 54.4631532,18.4716678 56.2213283,21.9128129 C58.0651619,25.5213548 59,29.4199739 59,33.5000726 C59,40.4092217 56.2817248,46.8777382 51.3457679,51.7136635 C46.5520911,56.412245 40.21424,59 33.5000726,59 Z M33.5000726,9.45183743 C32.8873972,9.45183743 32.2655752,9.47564756 31.6518835,9.52225154 C25.625016,9.9798707 20.0294894,12.6769491 15.8956727,17.1169583 C11.7403688,21.5797614 9.45198261,27.3981451 9.45198261,33.5000726 C9.45198261,46.3383806 19.4875185,56.888738 32.2988223,57.5186903 L32.2991127,57.5186903 C32.6943028,57.5382901 33.0983492,57.5483078 33.5000726,57.5483078 C39.8319712,57.5483078 45.8088955,55.1079142 50.3297721,50.676616 C54.9847984,46.1158139 57.5483078,40.0157738 57.5483078,33.4999274 C57.5483078,29.6516871 56.6668973,25.9753444 54.9286123,22.5732537 C53.2703236,19.3276712 50.8490943,16.4518716 47.9265456,14.2571289 C43.7390109,11.1134654 38.7503523,9.45183743 33.5000726,9.45183743 Z" id="Shape" fill="#333333"></path>
            </g>
        </g>
    </g>
</svg>