<svg enable-background="new 0 0 461.274 461.274" height="512" viewBox="0 0 461.274 461.274" width="512" xmlns="http://www.w3.org/2000/svg"><path d="m255.58 273.983c28.284 59.397 113.717-87.497 145.247-55.77-2.864-39.435-19.375-78.065-49.526-108.216-36.112-36.112-84.393-52.658-131.649-49.625l-.007.007s-75.081 79.96-41.139 113.901 110.309-96.167 135.765-53.74-86.975 94.046-58.691 153.443z" fill="#20ce55"/><path d="m232.246 352.472c-46.669-80.61-107.48-8.485-129.401-33.234s50.205-48.79 26.87-82.024-69.671-3.557-69.671-3.557h-.014c.742 42.66 17.395 85.107 49.95 117.663 36.713 36.713 85.991 53.196 133.997 49.455.615-16.242-2.659-32.626-11.731-48.303z" fill="#20ce55"/><path d="m73.274 164.552c-9.242 22.026-13.654 45.601-13.244 69.106h.014s46.337-29.677 69.671 3.557-48.79 57.276-26.87 82.024 82.731-47.376 129.401 33.234c9.072 15.677 12.346 32.06 11.731 48.302 20.683-1.605 41.139-6.972 60.238-16.101l-.007-.007c12.565-72.471 81.77-83.297 81.77-83.297l.007.007c11.95-26.248 16.9-54.914 14.842-83.163-31.53-31.728-116.963 115.167-145.247 55.77s84.146-111.016 58.69-153.442-101.823 87.681-135.765 53.74 41.14-113.901 41.14-113.901c-18.505 1.181-36.861 5.367-54.256 12.565l.007.007s-11.349 65.612-92.101 91.606z" fill="#1aa5e2"/><g fill="#333"><path d="m325.25 262.998c-1.393 0-2.779-.579-3.767-1.71-1.817-2.08-1.604-5.238.475-7.055 3.063-2.677 6.135-5.404 9.197-8.123 13.629-12.101 26.502-23.53 38.416-30.576 14.896-8.809 26.605-9.093 34.802-.845 1.946 1.959 1.936 5.125-.022 7.071-1.959 1.945-5.124 1.937-7.071-.022-11.065-11.136-35.681 10.715-59.485 31.85-3.082 2.736-6.173 5.481-9.256 8.175-.949.828-2.121 1.235-3.289 1.235z"/><path d="m307.045 278.035c-1.513 0-3.008-.684-3.991-1.984-1.666-2.202-1.231-5.338.971-7.004 2.071-1.567 4.293-3.317 6.604-5.201 2.14-1.744 5.289-1.424 7.035.716 1.745 2.14 1.424 5.29-.716 7.035-2.438 1.988-4.692 3.763-6.89 5.425-.903.683-1.962 1.013-3.013 1.013z"/><path d="m274.606 293.293c-2.713 0-5.278-.424-7.717-1.271-6.564-2.279-11.887-7.625-15.822-15.888-16.395-34.429 9.802-65.63 32.915-93.159 4.071-4.849 7.917-9.429 11.524-13.998 1.711-2.167 4.855-2.538 7.022-.826 2.167 1.711 2.538 4.855.826 7.022-3.701 4.688-7.593 9.324-11.714 14.232-22.209 26.453-45.175 53.806-31.545 82.429 2.781 5.839 6.076 9.353 10.074 10.741 4.489 1.56 10.211.571 17.495-3.02 2.478-1.221 5.475-.203 6.696 2.274s.203 5.475-2.274 6.696c-6.461 3.184-12.244 4.768-17.48 4.768z"/><path d="m191.996 184.964c-6.571 0-12.262-2.382-17.026-7.146-36.942-36.942 37.829-117.45 41.03-120.859l.109-.113c1.953-1.953 5.123-1.956 7.075-.003 1.926 1.927 1.956 5.031.081 6.989-.798.856-18.87 20.356-32.7 43.462-12.295 20.541-23.754 48.223-8.524 63.453 13.601 13.603 39.173-8.558 63.902-29.99 21.443-18.585 41.688-36.141 57.884-33.559 6.066.967 11.022 4.591 14.73 10.771 5.179 8.632 5.862 18.418 2.031 29.087-.933 2.599-3.795 3.949-6.396 3.016-2.599-.933-3.949-3.796-3.016-6.396 2.846-7.926 2.467-14.46-1.195-20.563-2.859-4.766-5.781-5.73-7.73-6.041-11.59-1.85-30.991 14.974-49.76 31.24-13.307 11.533-27.066 23.458-39.805 30.404-7.636 4.165-14.547 6.247-20.69 6.248z"/><path d="m243.98 405.775c-.064 0-.128-.001-.193-.003-2.759-.104-4.912-2.426-4.807-5.186.625-16.5-3.097-31.845-11.062-45.608-16.399-28.325-35.257-39.555-61.146-36.41-2.739.336-5.233-1.619-5.566-4.36s1.619-5.233 4.36-5.566c30.01-3.647 52.572 9.486 71.007 41.327 8.926 15.424 13.098 32.582 12.4 50.997-.102 2.693-2.319 4.809-4.993 4.809z"/><path d="m116.145 329.686c-6.546 0-12.374-1.861-17.043-7.132-6.103-6.891-7.103-14.696-2.971-23.201 3.221-6.631 9.08-12.88 15.283-19.497 14.989-15.988 23.425-26.643 14.208-39.769-8.401-11.965-21.32-16.082-38.395-12.236-13.487 3.037-24.378 9.948-24.487 10.017-2.327 1.489-5.418.811-6.907-1.514s-.812-5.418 1.514-6.907c.503-.322 12.499-7.933 27.684-11.352 21.108-4.753 37.977.864 48.776 16.246 14.553 20.727-1.888 38.264-15.098 52.354-13.589 14.495-18.842 21.64-12.122 29.228 5.613 6.337 15.751 3.761 31.827-.966 2.222-.653 4.495-1.321 6.812-1.971 2.657-.748 5.418.804 6.165 3.463.746 2.659-.805 5.419-3.463 6.165-2.276.639-4.509 1.295-6.692 1.938-8.863 2.605-17.463 5.133-25.091 5.134z"/><path d="m304.214 389.668c-.284 0-.571-.024-.86-.075-2.721-.472-4.544-3.06-4.072-5.78 6.842-39.46 30.02-61.179 48.259-72.451 2.35-1.451 5.43-.724 6.882 1.625s.724 5.43-1.625 6.882c-23.99 14.825-38.681 36.914-43.664 65.652-.421 2.432-2.534 4.147-4.92 4.147z"/><path d="m363.669 313.508c-1.917 0-3.747-1.109-4.574-2.975-1.119-2.524.02-5.478 2.544-6.598 13.157-5.834 23.147-7.44 23.566-7.506 2.73-.427 5.286 1.439 5.713 4.167.426 2.726-1.436 5.281-4.16 5.712-.091.014-9.197 1.506-21.065 6.769-.659.292-1.347.431-2.024.431z"/><path d="m74.827 169.318-3.064-9.519c76.982-24.78 88.598-87.073 88.706-87.699l9.854 1.704c-.123.712-3.168 17.663-16.519 37.952-12.24 18.603-35.877 43.689-78.977 57.562z"/></g><path d="m310.374 107.902c-.907 0-1.824-.247-2.649-.763-5.901-3.697-12.116-6.994-18.471-9.799-2.526-1.115-3.67-4.067-2.555-6.593s4.067-3.671 6.593-2.555c6.793 2.999 13.435 6.522 19.742 10.473 2.34 1.466 3.049 4.552 1.583 6.892-.95 1.514-2.578 2.345-4.243 2.345z" fill="#fff"/><path d="m386.28 230.656c0 18.707-3.432 37.137-9.898 54.407-1.091 2.913-4.577 4.107-7.247 2.511-2.068-1.237-2.961-3.772-2.116-6.028 6.054-16.15 9.26-33.391 9.26-50.889 0-40.32-16.17-77.85-45.53-105.68-2.01-1.9-2.09-5.06-.19-7.07 1.9-2 5.06-2.09 7.06-.19 31.381 29.739 48.661 69.849 48.661 112.939z" fill="#fff"/><path d="m245.245 391.591c-19.96-7.05-38.22-17.72-53.98-31.21-36.59-31.3-59.78-77.8-59.78-129.72 0-46.04 18.24-87.83 47.88-118.52 16.33-16.91 36.12-30.46 58.23-39.5 9.22-3.765 18.846-6.738 28.788-8.857-11.529-2.458-23.483-3.763-35.745-3.763-22.84 0-44.62 4.49-64.53 12.62-22.11 9.04-41.9 22.59-58.23 39.5-29.64 30.69-47.88 72.48-47.88 118.52 0 51.92 23.19 98.42 59.78 129.72 15.76 13.49 34.02 24.16 53.98 31.21 17.79 6.29 36.94 9.71 56.88 9.71 12.255 0 24.208-1.3 35.734-3.756-7.222-1.54-14.276-3.532-21.127-5.954z" opacity=".25"/><circle cx="58.308" cy="90.145" fill="#fcbc1d" r="26.999"/><path d="m60.222 109.238c2.54 2.54 5.47 4.47 8.59 5.78-9.82 4.15-21.59 2.22-29.59-5.78-10.55-10.55-10.55-27.64 0-38.18 8-8.01 19.77-9.94 29.59-5.78-3.12 1.31-6.05 3.24-8.59 5.78-10.55 10.54-10.55 27.63 0 38.18z" opacity=".25"/><path d="m39.217 76.054c-1.28 0-2.559-.488-3.536-1.464-1.953-1.953-1.953-5.119 0-7.071l50.91-50.91c1.953-1.952 5.118-1.952 7.071 0 1.953 1.953 1.953 5.119 0 7.071l-50.909 50.91c-.977.976-2.256 1.464-3.536 1.464z" fill="#333"/><path d="m77.399 114.236c-1.28 0-2.559-.488-3.536-1.464-1.953-1.953-1.953-5.119 0-7.071l50.909-50.909c1.953-1.952 5.118-1.952 7.071 0 1.953 1.953 1.953 5.119 0 7.071l-50.908 50.908c-.977.976-2.256 1.465-3.536 1.465z" fill="#333"/><path d="m77.399 76.054c-1.28 0-2.559-.488-3.536-1.464-1.953-1.953-1.953-5.119 0-7.071l31.818-31.818c1.953-1.952 5.118-1.952 7.071 0 1.953 1.953 1.953 5.119 0 7.071l-31.817 31.818c-.977.976-2.256 1.464-3.536 1.464z" fill="#333"/><path d="m58.308 122.128c-8.195 0-16.388-3.118-22.626-9.357-12.476-12.477-12.476-32.777 0-45.253 6.044-6.044 14.079-9.373 22.626-9.373s16.583 3.329 22.627 9.373c12.476 12.476 12.476 32.776 0 45.253-6.238 6.237-14.434 9.357-22.627 9.357zm0-53.982c-5.876 0-11.4 2.289-15.555 6.444-8.577 8.577-8.577 22.533 0 31.11s22.533 8.577 31.111 0c8.577-8.577 8.577-22.533 0-31.11-4.156-4.156-9.68-6.444-15.556-6.444z" fill="#333"/><path d="m225.399 461.236c-.04 0-.079 0-.118-.001-59.57-1.378-115.586-25.346-157.728-67.488-41.381-41.381-65.32-96.364-67.406-154.82-1.389-38.898 7.097-77.7 24.538-112.211 1.246-2.464 4.255-3.453 6.718-2.207 2.464 1.246 3.453 4.253 2.207 6.718-16.682 33.009-24.798 70.127-23.47 107.344 1.996 55.92 24.896 108.518 64.484 148.105 40.314 40.315 93.9 63.244 150.888 64.563 2.761.064 4.947 2.354 4.883 5.114-.063 2.72-2.288 4.883-4.996 4.883z" fill="#808080"/><path d="m252.812 460.226c-2.543 0-4.719-1.932-4.971-4.516-.268-2.749 1.743-5.193 4.492-5.461 47.333-4.611 91.027-23.973 126.358-55.992 2.697-2.442 5.376-4.992 7.965-7.582 18.22-18.22 32.952-39.141 43.787-62.183 1.175-2.5 4.154-3.572 6.652-2.397 2.499 1.175 3.572 4.154 2.397 6.652-11.328 24.091-26.726 45.959-45.765 64.999-2.705 2.706-5.506 5.371-8.323 7.922-36.934 33.471-82.614 53.712-132.102 58.533-.164.017-.328.025-.49.025z" fill="#808080"/><path d="m443.996 309.391c-.541 0-1.09-.088-1.63-.274-2.611-.9-3.998-3.746-3.098-6.356 1.948-5.65 3.685-11.457 5.164-17.259.683-2.675 3.402-4.292 6.08-3.61 2.676.682 4.292 3.404 3.61 6.08-1.546 6.067-3.363 12.139-5.4 18.048-.713 2.07-2.651 3.371-4.726 3.371z" fill="#808080"/><path d="m453.063 273.913c-.278 0-.56-.023-.844-.072-2.722-.463-4.554-3.045-4.091-5.768 1.962-11.539 3.017-23.369 3.135-35.162.611-59.788-22.333-115.995-64.606-158.268-20.641-20.641-45.842-37.377-72.878-48.398-2.557-1.042-3.785-3.96-2.743-6.517 1.042-2.558 3.961-3.786 6.517-2.743 28.26 11.52 54.601 29.012 76.175 50.587 44.189 44.189 68.174 102.944 67.534 165.44-.123 12.319-1.225 24.68-3.275 36.738-.415 2.439-2.531 4.163-4.924 4.163z" fill="#808080"/><path d="m129.721 33.729c-1.834 0-3.6-1.013-4.476-2.765-1.235-2.47-.234-5.473 2.235-6.708 22.052-11.029 45.785-18.408 70.54-21.933 34.663-4.928 70.551-1.847 103.785 8.911 2.627.85 4.068 3.669 3.217 6.296-.85 2.627-3.671 4.069-6.296 3.217-31.797-10.292-66.133-13.24-99.297-8.524-23.686 3.373-46.389 10.43-67.476 20.976-.717.36-1.481.53-2.232.53z" fill="#808080"/><path d="m230.638 406.3c-2.931 0-5.88-.073-8.766-.216-93.574-4.602-166.874-81.658-166.874-175.424 0-44.566 16.714-87.062 47.064-119.658 30.191-32.426 71.063-52.125 115.087-55.467 4.477-.341 9.015-.514 13.488-.514 38.346 0 74.783 12.138 105.372 35.102 21.339 16.026 39.019 37.025 51.129 60.727 12.7 24.855 19.139 51.708 19.139 79.811 0 47.589-18.723 92.143-52.721 125.452-33.018 32.363-76.672 50.187-122.918 50.187zm0-341.279c-4.22 0-8.503.164-12.73.485-41.512 3.152-80.053 21.729-108.526 52.311-28.621 30.739-44.383 70.815-44.383 112.844 0 88.428 69.123 161.097 157.365 165.436h.002c2.722.135 5.505.204 8.272.204 43.613 0 84.781-16.809 115.92-47.331 32.063-31.414 49.72-73.43 49.72-118.31 0-26.506-6.071-51.828-18.044-75.261-11.422-22.355-28.099-42.163-48.229-57.28-28.843-21.653-63.204-33.098-99.367-33.098z" fill="#333"/></svg>