<svg enable-background="new 0 0 58 58" height="512" viewBox="0 0 58 58" width="512" xmlns="http://www.w3.org/2000/svg"><circle cx="29" cy="29" fill="#285680" r="29"/><path d="m29 0c-4.03 0-7.866.823-11.353 2.308-.159.949-.952 2.57-.928 3.087.112.022 7.373-7.4 6.472-2.39-.581 3.225-6.516 3.206-6.261 6.453 6.236 2.445 8.411-4.642 13.708-4.613 1.767.01 6.292-2.784 7.155-2.215 3.496 2.303-.799 10.467-3.474 7.75-2.572-2.572-6.242.901-6.077 4.912 1.337.06 1.908-3.796 3.11-2.51 1.324 1.417.846 4.27-.986 4.925-1.844.659-9.077-4.89-7.3-.684 1.954 4.668-5.854 8.275 2.028 6.393 3.716-.891 2.481 1.937 4.234 3.286 2.088 1.603 1.164-2.214 2.686-1.633 2.215.857-.381 3.065 3.088 1.462 4.069-1.856 2.54 1.038 3.786 2.93 2.336 3.532 8.077 6.922 11.086 2.254.709-1.101.254-9.807 4.72-3.967 2.836 3.71 1.863-4.383 2.247-6.509-3.394-12.246-14.614-21.239-27.941-21.239z" fill="#24ae5f"/><path d="m32.919 42.082-5.348-4.008-3.585.141-3.719-1.17-2.911-2.007-6.603 1.526-2.723 1.317-3.03 4.082 1.072 4.784c.306.395.623.782.949 1.161l5.608 2.618 3.785.511 2.252 4.622.068.465c3.192 1.209 6.651 1.876 10.266 1.876 2.494 0 4.914-.315 7.224-.908l.761-4.544 3.459-2.807 1.437-4.481-7.222-.03z" fill="#fac176"/><path d="m.375 33.647c.138-.012.156-.024.168-.036 1.297-1.296 2.377-1.513 3.458-3.458s-.216-1.945 0-5.187-.216-1.729 0-5.187c.078-1.244-.053-1.928-1.565-2.417-1.563 3.564-2.436 7.498-2.436 11.638 0 1.582.131 3.133.375 4.647z" fill="#88c057"/><path d="m30 53c-1.083-.083-5.083-1.333-6-3s-2.917-4.5-3-4c-.057.34-9.111-2.743-15.331-4.938l-.669.901 1.072 4.784c.306.395.623.782.949 1.161l5.608 2.618 3.785.511 2.252 4.622.068.465c3.192 1.209 6.651 1.876 10.266 1.876 2.494 0 4.914-.315 7.224-.908l.577-3.445c-.509-.159-1.096-.369-1.801-.647-2.75-1.083-3.917.083-5 0z" fill="#fac176"/><path d="m40.444 49.741 1.437-4.481-7.222-.03-1.741-3.148-5.348-4.008-3.585.141-3.719-1.17-2.911-2.007-6.603 1.526-2.722 1.317-2.361 3.18c6.22 2.196 15.274 5.279 15.331 4.939.083-.5 2.083 2.333 3 4s4.917 2.917 6 3 2.25-1.083 5 0c.705.278 1.292.488 1.801.647l.184-1.099z" fill="#88c057"/><path d="m39.925 2.153c-.194 3.66-.337 6.305-.337 6.305l-5.588 5.588s5.238 7.508 5.588 8.381c.349.873 4.714 1.921 5.588 1.397.873-.524 4.191-3.318 5.588-1.397.972 1.337.847 2.504 1.445 3.325.412.006.927.283 1.569.93.908.272 1.943.539 2.865.762.306-1.79.079-4.983.299-6.205-2.41-8.69-8.77-15.723-17.017-19.086z" fill="#88c057"/><path d="m43.33 3.806c-.182 3.454-.33 6.194-.33 6.194l-4 4s3.75 5.375 4 6 3.375 1.375 4 1 3-2.375 4-1 .375 2.5 2 3c1.373.423 3.267.842 3.825.962.008-1.112.011-2.141.116-2.723-2.065-7.452-7.038-13.684-13.611-17.433z" fill="#fac176"/></svg>